<?xml version="1.0" encoding="UTF-8" standalone="no"?><svg xmlns="http://www.w3.org/2000/svg" xmlns:xlink="http://www.w3.org/1999/xlink"><symbol viewBox="0 0 100 100" id="about" xmlns="http://www.w3.org/2000/svg"><g transform="matrix(.95 0 0 .95 2.5 2.5)"><path d="M40 90H30v10h40V90H60V30H30v10h10z"/><circle cx="50" cy="10" r="10"/></g></symbol><symbol viewBox="0 0 100 100" id="add" xmlns="http://www.w3.org/2000/svg"><path clip-rule="evenodd" fill-rule="evenodd" d="M0 63.604h36.396V100h27.208V63.604H100V36.396H63.604V0H36.396v36.396H0z"/></symbol><symbol viewBox="0 0 100 100" id="addeffect" xmlns="http://www.w3.org/2000/svg"><path d="M34.548 33.753L50 2.447l15.452 31.306L100 38.773l-25 24.37 5.902 34.41L50 81.307 19.098 97.553 25 63.143 0 38.773z"/></symbol><symbol viewBox="0 0 100 100" id="addmedia" xmlns="http://www.w3.org/2000/svg"><g transform="matrix(6.25 0 0 6.25 -3.125 -6477.5)"><path d="M2 1037.4l11 6-11 6zM11 1045.4v2H9v2h2v2h2v-2h2v-2h-2v-2z"/></g></symbol><symbol viewBox="0 0 24 24" id="arrow" xmlns="http://www.w3.org/2000/svg"><path d="M2.453 8.015l1.415-1.414 9.546 9.546-1.415 1.414z"/><path d="M11.997 17.56l-1.414-1.414L20.128 6.6l1.415 1.414z"/></symbol><symbol viewBox="0 0 100 100" id="audio" xmlns="http://www.w3.org/2000/svg"><path d="M78.15 5.947a3.39 3.39 0 0 0-3.65.58L49.33 29.231h-26.1a3.39 3.39 0 0 0-3.391 3.391v34.756a3.391 3.391 0 0 0 3.39 3.391h26.1L74.5 93.472a3.392 3.392 0 0 0 5.663-2.519V9.046a3.39 3.39 0 0 0-2.013-3.099z"/></symbol><symbol viewBox="0 0 100 100" id="basics" xmlns="http://www.w3.org/2000/svg"><path d="M42.079 68.718l28.858-31.529-5.724-5.907-23.012 25.683-7.088-6.427-6.05 6.05z"/><path d="M11 11v78h78V11H11zm70 70H18V18h63v63z"/></symbol><symbol viewBox="0 0 100 100" id="camera" xmlns="http://www.w3.org/2000/svg"><path d="M85.981 44.132l-17.99 10.98V42.99h-9.864c3.65-1.48 6.231-5.045 6.231-9.23 0-5.502-4.462-9.963-9.966-9.963-5.5 0-9.96 4.46-9.96 9.963 0 4.186 2.58 7.752 6.23 9.23H33.11c5.209-1.801 8.953-6.732 8.953-12.55 0-7.34-5.947-13.288-13.29-13.288-7.333 0-13.282 5.949-13.282 13.289 0 5.816 3.744 10.748 8.95 12.549H14.019v39.857h53.975V70.73l17.99 10.98V44.132z"/></symbol><symbol viewBox="0 0 100 100" id="delete" xmlns="http://www.w3.org/2000/svg"><title>delete</title><path d="M16.67 86.945A11.14 10.583 0 0 0 27.78 97.5h44.44a11.14 10.583 0 0 0 11.11-10.554V23.608H16.67v63.336zM88.89 7.782H69.44L63.89 2.5H36.11l-5.55 5.282H11.11v10.554h77.78V7.782z"/></symbol><symbol viewBox="0 0 100 100" id="download" xmlns="http://www.w3.org/2000/svg"><path d="M38 2v42H20l30 30 30-30H62V2H38zM8 86v12h84V86H8z"/></symbol><symbol viewBox="0 0 100 100" id="duplicate" xmlns="http://www.w3.org/2000/svg"><path d="M0 69.318V0h69.36v18.633H18.591v50.686H0v-.001zM100 100H30.639V30.681H100V100z"/></symbol><symbol viewBox="0 0 35 23" id="ease_0" xmlns="http://www.w3.org/2000/svg"><path stroke="#555" stroke-width="1.5" d="M1 20h33M1 3h33"/><path d="M1 20h16.5m0-17H34" fill="none" stroke="#aaa" stroke-width="2"/></symbol><symbol viewBox="0 0 35 23" id="ease_1" xmlns="http://www.w3.org/2000/svg"><path stroke="#555" stroke-width="1.5" d="M1 20h33M1 3h33"/><path d="M1 20L34 3" fill="none" stroke="#aaa" stroke-width="2"/></symbol><symbol viewBox="0 0 35 23" id="ease_10" xmlns="http://www.w3.org/2000/svg"><path stroke="#555" stroke-width="1.5" d="M1 20h33M1 3h33"/><path d="M1 20l3.3-.014 3.3-.204 3.3-.884 3.3-2.38 3.3-5.018 3.3-5.018 3.3-2.38 3.3-.884 3.3-.204L34 3" fill="none" stroke="#aaa" stroke-width="2"/></symbol><symbol viewBox="0 0 35 23" id="ease_11" xmlns="http://www.w3.org/2000/svg"><path stroke="#555" stroke-width="1.5" d="M1 20h33M1 3h33"/><path d="M1 20h3.3l3.3-.005 3.3-.036 3.3-.133 3.3-.357 3.3-.79 3.3-1.536 3.3-2.714 3.3-4.467L34 3" fill="none" stroke="#aaa" stroke-width="2"/></symbol><symbol viewBox="0 0 35 23" id="ease_12" xmlns="http://www.w3.org/2000/svg"><path stroke="#555" stroke-width="1.5" d="M1 20h33M1 3h33"/><path d="M1 20l3.3-6.962 3.3-4.467 3.3-2.714 3.3-1.535 3.3-.79 3.3-.358 3.3-.133 3.3-.036L30.7 3H34" fill="none" stroke="#aaa" stroke-width="2"/></symbol><symbol viewBox="0 0 35 23" id="ease_13" xmlns="http://www.w3.org/2000/svg"><path stroke="#555" stroke-width="1.5" d="M1 20h33M1 3h33"/><path d="M1 20l2.75-.001 2.75-.034 2.75-.23L12 18.88l2.75-2.297L17.5 11.5l2.75-5.084L23 4.119l2.75-.853 2.75-.231 2.75-.034L34 3" fill="none" stroke="#aaa" stroke-width="2"/></symbol><symbol viewBox="0 0 35 23" id="ease_14" xmlns="http://www.w3.org/2000/svg"><path stroke="#555" stroke-width="1.5" d="M1 20h33M1 3h33"/><path d="M1 20l4.125-.327 4.125-.967 4.125-1.571 4.125-2.114 4.125-2.576 4.125-2.94 4.125-3.188L34 3" fill="none" stroke="#aaa" stroke-width="2"/></symbol><symbol viewBox="0 0 35 23" id="ease_15" xmlns="http://www.w3.org/2000/svg"><path stroke="#555" stroke-width="1.5" d="M1 20h33M1 3h33"/><path d="M1 20l4.125-3.317 4.125-3.189 4.125-2.939L17.5 7.98l4.125-2.114 4.125-1.571 4.125-.967L34 3" fill="none" stroke="#aaa" stroke-width="2"/></symbol><symbol viewBox="0 0 35 23" id="ease_16" xmlns="http://www.w3.org/2000/svg"><path stroke="#555" stroke-width="1.5" d="M1 20h33M1 3h33"/><path d="M1 20l3.3-.416 3.3-1.207 3.3-1.88 3.3-2.37 3.3-2.627 3.3-2.627 3.3-2.37 3.3-1.88 3.3-1.207L34 3" fill="none" stroke="#aaa" stroke-width="2"/></symbol><symbol viewBox="0 0 35 23" id="ease_17" xmlns="http://www.w3.org/2000/svg"><path stroke="#555" stroke-width="1.5" d="M1 20h33M1 3h33"/><path d="M1 20l3.3-.033 3.3-.033 3.3-.067 3.3-.133 3.3-.265 3.3-.532 3.3-1.062 3.3-2.125 3.3-4.25L34 3" fill="none" stroke="#aaa" stroke-width="2"/></symbol><symbol viewBox="0 0 35 23" id="ease_18" xmlns="http://www.w3.org/2000/svg"><path stroke="#555" stroke-width="1.5" d="M1 20h33M1 3h33"/><path d="M1 20l3.3-8.5 3.3-4.25 3.3-2.125 3.3-1.063 3.3-.53 3.3-.266 3.3-.133 3.3-.067 3.3-.033L34 3" fill="none" stroke="#aaa" stroke-width="2"/></symbol><symbol viewBox="0 0 35 23" id="ease_19" xmlns="http://www.w3.org/2000/svg"><path stroke="#555" stroke-width="1.5" d="M1 20h33M1 3h33"/><path d="M1 20l2.357-.022 2.357-.038 2.357-.102 2.358-.274 2.357-.737 2.357-1.985L17.5 11.5l2.357-5.342 2.357-1.985 2.357-.737 2.358-.274 2.357-.102 2.357-.038L34 3" fill="none" stroke="#aaa" stroke-width="2"/></symbol><symbol viewBox="0 0 35 23" id="ease_2" xmlns="http://www.w3.org/2000/svg"><path stroke="#555" stroke-width="1.5" d="M1 20h33M1 3h33"/><path d="M1 20l4.125-.266 4.125-.797 4.125-1.328L17.5 15.75l4.125-2.39 4.125-2.922 4.125-3.454L34 3" fill="none" stroke="#aaa" stroke-width="2"/></symbol><symbol viewBox="0 0 35 23" id="ease_20" xmlns="http://www.w3.org/2000/svg"><path stroke="#555" stroke-width="1.5" d="M1 20h33M1 3h33"/><path d="M1 20l2.357-.043 2.357-.131 2.357-.22 2.358-.315 2.357-.412 2.357-.52 2.357-.637 2.357-.77 2.357-.93 2.357-1.124 2.358-1.382 2.357-1.76 2.357-2.446L34 3" fill="none" stroke="#aaa" stroke-width="2"/></symbol><symbol viewBox="0 0 35 23" id="ease_21" xmlns="http://www.w3.org/2000/svg"><path stroke="#555" stroke-width="1.5" d="M1 20h33M1 3h33"/><path d="M1 20l2.357-6.31 2.357-2.446 2.357-1.76 2.358-1.382 2.357-1.124 2.357-.93 2.357-.77 2.357-.638 2.357-.519 2.357-.412 2.358-.314 2.357-.22 2.357-.132L34 3" fill="none" stroke="#aaa" stroke-width="2"/></symbol><symbol viewBox="0 0 35 23" id="ease_22" xmlns="http://www.w3.org/2000/svg"><path stroke="#555" stroke-width="1.5" d="M1 20h33M1 3h33"/><path d="M1 20l1.65-.043 1.65-.129 1.65-.22 1.65-.318 1.65-.429 1.65-.561 1.65-.73 1.65-.97 1.65-1.395L17.5 11.5l1.65-3.705L20.8 6.4l1.65-.97 1.65-.73 1.65-.561 1.65-.43 1.65-.317 1.65-.22 1.65-.13L34 3" fill="none" stroke="#aaa" stroke-width="2"/></symbol><symbol viewBox="0 0 35 23" id="ease_23" xmlns="http://www.w3.org/2000/svg"><path stroke="#555" stroke-width="1.5" d="M1 18h33M1 5h33"/><path d="M1 18l1.5.013 1.5-.01 1.5-.02 1.5-.026 1.5-.013 1.5.021 1.5.067 1.5.1 1.5.082 1.5-.02L17.5 18l1.5-.365 1.5-.39 1.5-.124 1.5.475 1.5 1.22 1.5 1.631 1.5 1.09 1.5-.806 1.5-3.716 1.5-6.185L34 5" fill="none" stroke="#aaa" stroke-width="2"/></symbol><symbol viewBox="0 0 35 23" id="ease_24" xmlns="http://www.w3.org/2000/svg"><path stroke="#555" stroke-width="1.5" d="M1 18h33M1 5h33"/><path d="M1 18l1.5-5.83L4 5.985 5.5 2.27 7 1.463l1.5 1.09L10 4.184l1.5 1.22 1.5.475 1.5-.124 1.5-.39L17.5 5l1.5-.194 1.5-.02 1.5.081 1.5.1 1.5.068 1.5.02 1.5-.012 1.5-.025 1.5-.021 1.5-.01L34 5" fill="none" stroke="#aaa" stroke-width="2"/></symbol><symbol viewBox="0 0 35 23" id="ease_25" xmlns="http://www.w3.org/2000/svg"><path stroke="#555" stroke-width="1.5" d="M1 18h33M1 5h33"/><path d="M1 18l1.1.005 1.1-.013 1.1-.017 1.1.005 1.1.052 1.1.07 1.1-.021 1.1-.209 1.1-.278 1.1.084 1.1.834 1.1 1.113 1.1-.335 1.1-3.337 1.1-4.453 1.1-4.453 1.1-3.337 1.1-.335 1.1 1.113 1.1.834 1.1.084 1.1-.278 1.1-.209 1.1-.02 1.1.069 1.1.052 1.1.005 1.1-.017 1.1-.013L34 5" fill="none" stroke="#aaa" stroke-width="2"/></symbol><symbol viewBox="0 0 35 23" id="ease_26" xmlns="http://www.w3.org/2000/svg"><path stroke="#555" stroke-width="1.5" d="M1 20h33M1 3h33"/><path d="M1 20l4.125.362 4.125.728 4.125.556 4.125-.155 4.125-1.404 4.125-3.191 4.125-5.516L34 3" fill="none" stroke="#aaa" stroke-width="2"/></symbol><symbol viewBox="0 0 35 23" id="ease_27" xmlns="http://www.w3.org/2000/svg"><path stroke="#555" stroke-width="1.5" d="M1 20h33M1 3h33"/><path d="M1 20l4.125-8.38L9.25 6.104l4.125-3.19L17.5 1.508l4.125-.155 4.125.556 4.125.728L34 3" fill="none" stroke="#aaa" stroke-width="2"/></symbol><symbol viewBox="0 0 35 23" id="ease_28" xmlns="http://www.w3.org/2000/svg"><path stroke="#555" stroke-width="1.5" d="M1 20h33M1 3h33"/><path d="M1 20l2.357.361 2.357.727 2.357.558 2.358-.145 2.357-1.383 2.357-3.156L17.5 11.5l2.357-5.462 2.357-3.156L24.571 1.5l2.358-.145 2.357.558 2.357.727L34 3" fill="none" stroke="#aaa" stroke-width="2"/></symbol><symbol viewBox="0 0 35 23" id="ease_29" xmlns="http://www.w3.org/2000/svg"><path stroke="#555" stroke-width="1.5" d="M1 20h33M1 3h33"/><path d="M1 20l1.5-.266L4 20l1.5-.797 1.5-.265 1.5.265L10 20l1.5-1.86 1.5-1.328 1.5-.796 1.5-.266 1.5.266 1.5.797 1.5 1.328L22 20l1.5-3.984 1.5-3.453 1.5-2.922L28 7.25l1.5-1.86L31 4.064l1.5-.797L34 3" fill="none" stroke="#aaa" stroke-width="2"/></symbol><symbol viewBox="0 0 35 23" id="ease_3" xmlns="http://www.w3.org/2000/svg"><path stroke="#555" stroke-width="1.5" d="M1 20h33M1 3h33"/><path d="M1 20l4.125-3.984 4.125-3.453 4.125-2.922L17.5 7.25l4.125-1.86 4.125-1.327 4.125-.797L34 3" fill="none" stroke="#aaa" stroke-width="2"/></symbol><symbol viewBox="0 0 35 23" id="ease_30" xmlns="http://www.w3.org/2000/svg"><path stroke="#555" stroke-width="1.5" d="M1 20h33M1 3h33"/><path d="M1 20l1.5-.266 1.5-.797 1.5-1.328L7 15.75l1.5-2.39 1.5-2.922 1.5-3.454L13 3l1.5 1.86L16 6.186l1.5.797 1.5.266 1.5-.266 1.5-.796 1.5-1.329L25 3l1.5.797 1.5.265 1.5-.265L31 3l1.5.266L34 3" fill="none" stroke="#aaa" stroke-width="2"/></symbol><symbol viewBox="0 0 35 23" id="ease_31" xmlns="http://www.w3.org/2000/svg"><path stroke="#555" stroke-width="1.5" d="M1 20h33M1 3h33"/><path d="M1 20l1.179-.09 1.178-.344 1.179-.03 1.178.171 1.179-1.222 1.178-.567 1.179.09 1.179.745 1.178.946 1.179-2.952 1.178-2.295 1.179-1.64 1.178-.984L17.5 11.5l1.179-.328 1.178-.984 1.179-1.64 1.178-2.295L23.393 3.3l1.178.946 1.179.745 1.179.09 1.178-.567 1.179-1.222 1.178.17 1.179-.03 1.178-.344L34 3" fill="none" stroke="#aaa" stroke-width="2"/></symbol><symbol viewBox="0 0 35 23" id="ease_4" xmlns="http://www.w3.org/2000/svg"><path stroke="#555" stroke-width="1.5" d="M1 20h33M1 3h33"/><path d="M1 20l3.3-.34 3.3-1.02 3.3-1.7 3.3-2.38 3.3-3.06 3.3-3.06 3.3-2.38 3.3-1.7 3.3-1.02L34 3" fill="none" stroke="#aaa" stroke-width="2"/></symbol><symbol viewBox="0 0 35 23" id="ease_5" xmlns="http://www.w3.org/2000/svg"><path stroke="#555" stroke-width="1.5" d="M1 20h33M1 3h33"/><path d="M1 20l4.125-.033 4.125-.233 4.125-.63 4.125-1.229 4.125-2.025 4.125-3.022 4.125-4.217L34 3" fill="none" stroke="#aaa" stroke-width="2"/></symbol><symbol viewBox="0 0 35 23" id="ease_6" xmlns="http://www.w3.org/2000/svg"><path stroke="#555" stroke-width="1.5" d="M1 20h33M1 3h33"/><path d="M1 20l4.125-5.611 4.125-4.217 4.125-3.022L17.5 5.125l4.125-1.229 4.125-.63 4.125-.233L34 3" fill="none" stroke="#aaa" stroke-width="2"/></symbol><symbol viewBox="0 0 35 23" id="ease_7" xmlns="http://www.w3.org/2000/svg"><path stroke="#555" stroke-width="1.5" d="M1 20h33M1 3h33"/><path d="M1 20l2.75-.04 2.75-.275 2.75-.747L12 17.48l2.75-2.4L17.5 11.5l2.75-3.581 2.75-2.4 2.75-1.457 2.75-.747 2.75-.276L34 3" fill="none" stroke="#aaa" stroke-width="2"/></symbol><symbol viewBox="0 0 35 23" id="ease_8" xmlns="http://www.w3.org/2000/svg"><path stroke="#555" stroke-width="1.5" d="M1 20h33M1 3h33"/><path d="M1 20l4.125-.004 4.125-.062 4.125-.27 4.125-.727 4.125-1.531 4.125-2.785 4.125-4.586L34 3" fill="none" stroke="#aaa" stroke-width="2"/></symbol><symbol viewBox="0 0 35 23" id="ease_9" xmlns="http://www.w3.org/2000/svg"><path stroke="#555" stroke-width="1.5" d="M1 20h33M1 3h33"/><path d="M1 20l4.125-7.035L9.25 8.38l4.125-2.785L17.5 4.062l4.125-.726 4.125-.27 4.125-.062L34 3" fill="none" stroke="#aaa" stroke-width="2"/></symbol><symbol viewBox="0 0 100 100" id="edit" xmlns="http://www.w3.org/2000/svg"><g transform="scale(1.5625)"><path d="M36.243 17.858L10.08 44.021a.997.997 0 0 0-.293.707v8.484a1 1 0 0 0 1 1h8.485c.265 0 .52-.105.707-.293l26.164-26.163-9.9-9.898zM53.92 18.565l-8.484-8.485a.997.997 0 0 0-1.414 0l-6.364 6.364 9.899 9.898 6.363-6.363a.999.999 0 0 0 0-1.414z"/></g></symbol><symbol viewBox="0 0 100 100" id="edit" xmlns="http://www.w3.org/2000/svg"><path style="marker:none" d="M72.973 7.5L14.894 65.578l19.527 19.527L92.5 27.027 72.973 7.5zm-60.34 62.35L7.5 92.5l22.65-5.133L12.633 69.85z" color="#000" overflow="visible"/></symbol><symbol viewBox="0 0 100 100" id="feedback" xmlns="http://www.w3.org/2000/svg"><g transform="translate(.125 .125)"><path d="M49.875 11.75c-21.022 0-38.125 17.103-38.125 38.125S28.853 88 49.875 88 88 70.897 88 49.875 70.897 11.75 49.875 11.75zm0 70.25C32.161 82 17.75 67.589 17.75 49.875S32.161 17.75 49.875 17.75 82 32.161 82 49.875 67.589 82 49.875 82z"/><path d="M71 46.875a3 3 0 0 0-3 3C68 59.869 59.869 68 49.875 68S31.75 59.869 31.75 49.875a3 3 0 1 0-6 0C25.75 63.178 36.572 74 49.875 74S74 63.178 74 49.875a3 3 0 0 0-3-3z"/><path d="M40.5 47.75a3 3 0 0 0 3-3V36a3 3 0 1 0-6 0v8.75a3 3 0 0 0 3 3zM60 47.75a3 3 0 0 0 3-3V36a3 3 0 1 0-6 0v8.75a3 3 0 0 0 3 3z"/></g></symbol><symbol viewBox="0 0 100 100" id="flag" xmlns="http://www.w3.org/2000/svg"><path d="M83.3 15.4c-1.1-.8-2.3-1-3.4-.7l-7.2 1.8c-7.4 1.9-15.1 1.5-22.3-1.2H50c-8-2.9-16.6-3.6-24.8-1.9l-2.1.4V7.4c0-2.2-1.8-4-4-4s-4 1.8-4 4v85.2c0 2.2 1.8 4 4 4s4-1.8 4-4V57.1l3.7-.7c6.7-1.3 13.9-.8 20.6 1.6l.3.1C53 60 58.3 61 63.5 61c3.9 0 7.6-.4 11.1-1.3l7.2-1.8c1.8-.4 3.1-2 3.1-3.9V18.6c0-1.3-.6-2.4-1.6-3.2z"/></symbol><symbol viewBox="0 0 100 100" id="folder" xmlns="http://www.w3.org/2000/svg"><path d="M97.722 23.267H45.711l-5.048-8.201c-.686-.963-1.458-2.277-3.29-2.277H2.279A2.276 2.276 0 0 0 0 15.066v70.077c0 1.143 1.019 2.068 2.277 2.068h95.444c1.26 0 2.278-.926 2.278-2.068v-59.81c0-1.142-1.019-2.066-2.278-2.066z"/></symbol><symbol viewBox="0 0 100 100" id="fx" xmlns="http://www.w3.org/2000/svg"><path d="M70.804 50.458l27.738 21.264-32.361-5.852 8.325 22.194-18.183-15.417-12.939 25.28-7.4-30.514-28.359 10.48 16.332-19.726L1.458 55.09l23.121-7.717L3.624 23.341l34.207 8.008 3.692-29.276L53.86 27.035 73.581 7.004l-7.704 26.509 30.515-1.233z"/></symbol><symbol viewBox="0 0 35 23" id="interp_0" xmlns="http://www.w3.org/2000/svg"><g transform="translate(0 -1029.362)"><path d="M5 1047.362l12.457-14.993L30 1047.362" fill="none" stroke="#ccc" stroke-width="2"/><circle cx="17.5" cy="1032.693" r="2.5" fill="#ccc"/><circle r="2.5" cy="1048.862" cx="31.5" fill="#6b6b6b"/><circle cx="3.5" cy="1048.862" r="2.5" fill="#6b6b6b"/></g></symbol><symbol viewBox="0 0 35 23" id="interp_1" xmlns="http://www.w3.org/2000/svg"><g transform="translate(0 -1029.362)"><path d="M3.527 1048.847s4.364-16.62 13.93-16.51c9.653.112 14.06 16.51 14.06 16.51" fill="none" stroke="#ccc" stroke-width="2"/><circle cx="17.5" cy="1032.693" r="2.5" fill="#ccc"/><circle r="2.5" cy="1048.862" cx="31.5" fill="#6b6b6b"/><circle cx="3.5" cy="1048.862" r="2.5" fill="#6b6b6b"/></g></symbol><symbol viewBox="0 0 100 100" id="layers" xmlns="http://www.w3.org/2000/svg"><g transform="matrix(5 0 0 5 -2850 -3400)"><path d="M590 694l-2.882-1.441-7.118 3.559-7.118-3.559L570 694l10 5z"/><path d="M570 690l10 5 10-5-2.882-1.441-7.118 3.559-7.118-3.559z"/><path d="M590 686l-10-5-10 5 10 5z"/></g></symbol><symbol viewBox="0 0 100 100" id="like" xmlns="http://www.w3.org/2000/svg"><path d="M30.255 8.35c-7.136 0-14.272 2.744-19.624 8.096-10.841 10.842-10.841 28.545 0 39.386L47.684 90.69c.686.549 1.51.96 2.333.96.824 0 1.647-.274 2.333-.96l37.053-34.858C94.755 50.48 97.5 43.344 97.5 36.208c0-7.136-2.745-14.272-8.097-19.624-4.803-4.804-10.978-7-17.428-7-7.823 0-15.782 3.294-21.683 9.058l-.138.137s-.137 0-.137-.137C44.253 13.427 37.254 8.349 30.255 8.349z"/></symbol><symbol viewBox="0 0 100 100" id="link" xmlns="http://www.w3.org/2000/svg"><path d="M41.136 63.531H9.743L9.74 36.47h31.395a4.871 4.871 0 1 0 0-9.744H4.871A4.875 4.875 0 0 0 0 31.598l.002 36.806c0 2.69 2.181 4.871 4.872 4.871h36.265a4.871 4.871 0 1 0-.002-9.743zM95.13 26.725H58.864a4.871 4.871 0 1 0 0 9.744h31.393V63.53H58.864a4.871 4.871 0 1 0 0 9.744h36.265c2.69 0 4.871-2.181 4.871-4.872V31.597c0-2.69-2.18-4.872-4.871-4.872zM22.394 49.998c0 2.691 2.18 4.872 4.871 4.872h45.471a4.871 4.871 0 1 0 0-9.743h-45.47a4.87 4.87 0 0 0-4.872 4.871z"/></symbol><symbol viewBox="0 0 50 50" id="loading" xmlns="http://www.w3.org/2000/svg"><path fill="#495057" d="M43.935 25.145c0-10.318-8.364-18.683-18.683-18.683-10.318 0-18.683 8.365-18.683 18.683h4.068c0-8.071 6.543-14.615 14.615-14.615s14.615 6.543 14.615 14.615h4.068z"/></symbol><symbol viewBox="0 0 100 100" id="menu" xmlns="http://www.w3.org/2000/svg"><path d="M2.272 83.383h95.456v-6.358H2.271v6.358zm0-31.793h95.456v-6.359H2.271v6.359zm0-34.973v6.358h95.456v-6.358H2.271z" clip-rule="evenodd" fill-rule="evenodd"/></symbol><symbol viewBox="0 0 100 100" id="music" xmlns="http://www.w3.org/2000/svg"><path d="M34.105 12.965v57.514c-3.324-1.452-7.45-1.802-11.467-.934C13.822 71.449 7.784 78.604 9.18 85.49 10.311 91.089 16.123 95 23.31 95c1.452 0 2.927-.158 4.383-.475 7.653-1.652 13.39-7.332 13.643-13.553l.018-53.694 42.416-6.357v41.9c-3.326-1.452-7.45-1.802-11.47-.935-8.812 1.905-14.85 9.06-13.458 15.946 1.134 5.601 6.945 9.512 14.131 9.512 1.452 0 2.927-.158 4.386-.475 7.65-1.654 13.39-7.335 13.643-13.553L91.022 5l-56.917 7.965z"/></symbol><symbol viewBox="0 0 100 100" id="mute" xmlns="http://www.w3.org/2000/svg"><path d="M76.664 5L44.7 31.247H23.336v37.5h21.349L76.647 95z"/></symbol><symbol viewBox="0 0 100 100" id="objects" xmlns="http://www.w3.org/2000/svg"><path d="M94.65 35.7c0-.1-.1-.2-.1-.3 0-.1-.1-.2-.1-.3 0-.1-.1-.2-.2-.3 0-.1-.1-.2-.1-.2-.1-.2-.2-.3-.4-.5L66.35 6.7c-.1-.1-.3-.3-.5-.4-.1 0-.1-.1-.2-.1-.1-.1-.2-.1-.3-.2-.1 0-.2-.1-.3-.1-.1 0-.2-.1-.3-.1-.2 0-.4-.1-.6-.1H7.55h-.1c-.2.2-.3.3-.4.3l-.6.3-.1.1-.3.3-.2.2c0 .1-.1.1-.2.2 0 .1-.1.2-.1.3 0 .1-.1.2-.1.3-.1.1-.1.2-.1.3 0 .1-.1.2-.1.3V64.6c0 .1.1.2.1.3 0 .1 0 .2.1.2l.1.1c.1.1.1.3.2.4l.1.1.3.3 28.5 27.5c.1 0 .1.1.2.1.1.1.2.2.3.2.1.1.2.1.3.1.1 0 .2.1.3.1.1 0 .2.1.3.1.1 0 .2.1.2.1.2 0 .4.1.6.1h55.1c.2 0 .4 0 .6-.1.1 0 .2-.1.3-.1.1 0 .2-.1.3-.1.1 0 .2-.1.3-.2-.2.1-.1.1-.1.1.3-.2.6-.5.8-.8 0-.1.1-.1.1-.2.1-.1.1-.2.2-.3 0-.1.1-.2.1-.3 0-.1.1-.2.1-.3 0-.2.1-.4.1-.6V36.3c0-.2 0-.4-.1-.6zM67.25 16l17.3 17.3h-17.3V16zm-33.6 68.3l-18-17.5h18.1v17.5zm0-23.5h-22.5V15.9l22.5 21.7v23.2zm-18-49h45.6v21.5h-23.4l-22.2-21.5zm45.6 27.5v21.5h-21.6V39.3h21.6zm-21.6 49.1V66.8h23.3l21.5 21.5h-44.8zm49.1-4.3l-21.5-21.5V39.3h21.5v44.8z"/></symbol><symbol viewBox="0 0 100 99.999999" id="open" xmlns="http://www.w3.org/2000/svg"><path d="M4.196 0A4.192 4.192 0 0 0 0 4.196v91.608A4.192 4.192 0 0 0 4.196 100h91.608A4.192 4.192 0 0 0 100 95.804V50.34a4.192 4.192 0 0 0-4.196-4.196 4.192 4.192 0 0 0-4.195 4.196v41.269H8.39V8.39h41.261a4.192 4.192 0 0 0 4.195-4.195A4.192 4.192 0 0 0 49.652 0H4.196zm66.753.017a4.192 4.192 0 0 0-4.195 4.195 4.195 4.195 0 0 0 4.195 4.196h14.723l-32.206 32.21a4.19 4.19 0 0 0 0 5.933 4.19 4.19 0 0 0 5.933 0l32.21-32.214v14.735a4.197 4.197 0 0 0 4.195 4.196c2.32 0 4.196-1.88 4.196-4.196V4.212A4.192 4.192 0 0 0 95.804.017H70.95z"/></symbol><symbol viewBox="0 0 100 100" id="pause" xmlns="http://www.w3.org/2000/svg"><g transform="translate(0 .001)"><path d="M14 13.999h27v72H14zM59 13.999h27v72H59z"/></g></symbol><symbol viewBox="0 0 100 100" id="play" xmlns="http://www.w3.org/2000/svg"><path d="M14 86l72-36-72-36z"/></symbol><symbol viewBox="-13.05 8.347 100 100" id="preview" xmlns="http://www.w3.org/2000/svg"><path d="M86.95 58.411S66.82 93.155 36.947 93.155-13.05 58.411-13.05 58.411 7.074 23.538 36.947 23.538c29.872 0 50.003 34.873 50.003 34.873zm-25.515 0c0-13.46-11.027-24.486-24.488-24.486-13.46 0-24.488 11.025-24.488 24.487 0 13.463 11.027 24.488 24.488 24.488S61.435 71.874 61.435 58.41zM36.947 47.387c-6.024 0-10.898 5.127-10.898 11.024A10.89 10.89 0 0 0 36.947 69.31c5.9 0 11.026-4.871 11.026-10.897 0-5.897-5.126-11.024-11.026-11.024z"/></symbol><symbol viewBox="0 0 100 100" id="random" xmlns="http://www.w3.org/2000/svg"><g transform="translate(-.887 -.41) scale(1.357)"><path d="M32.105 3.676H5.992a3.498 3.498 0 0 0-3.496 3.496v26.11c0 1.933 1.566 3.5 3.496 3.5h26.113a3.498 3.498 0 0 0 3.497-3.5V7.171a3.495 3.495 0 0 0-3.497-3.496zM10.547 14.914a3.188 3.188 0 1 1 .002-6.377 3.188 3.188 0 0 1-.002 6.377zm8.504 8.5a3.19 3.19 0 0 1-3.192-3.187 3.188 3.188 0 1 1 3.191 3.188zm8.504 8.504a3.19 3.19 0 1 1-.005-6.378 3.19 3.19 0 0 1 .005 6.378zm0 0M70.25 39.457l-24.398-9.3a3.496 3.496 0 0 0-4.512 2.023l-9.3 24.398a3.498 3.498 0 0 0 2.023 4.512l24.398 9.3a3.498 3.498 0 0 0 4.512-2.023l9.3-24.398a3.496 3.496 0 0 0-2.023-4.512zM39.973 58.141a3.192 3.192 0 0 1-1.844-4.118 3.194 3.194 0 0 1 4.117-1.843 3.19 3.19 0 0 1-2.273 5.96zm1.183-12.059a3.19 3.19 0 1 1 5.964 2.267 3.19 3.19 0 0 1-5.964-2.267zm4.871-3.828a3.188 3.188 0 1 1 2.27-5.96 3.19 3.19 0 0 1-2.27 5.96zm9.985 22a3.192 3.192 0 0 1 2.27-5.965 3.19 3.19 0 0 1 1.843 4.117 3.184 3.184 0 0 1-4.113 1.848zm3.027-7.942a3.19 3.19 0 0 1-1.844-4.117 3.184 3.184 0 0 1 4.114-1.847 3.192 3.192 0 0 1 1.847 4.117 3.196 3.196 0 0 1-4.117 1.847zm3.031-7.949a3.182 3.182 0 0 1-1.843-4.113 3.182 3.182 0 0 1 4.113-1.844 3.189 3.189 0 0 1 1.844 4.114 3.185 3.185 0 0 1-4.114 1.843zm0 0"/></g></symbol><symbol viewBox="0 0 100 100" id="record" xmlns="http://www.w3.org/2000/svg"><path d="M50 5c24.8 0 45 20.1 45 45 0 24.8-20.1 45-45 45S5 74.8 5 50 25.2 5 50 5" clip-rule="evenodd" fill-rule="evenodd"/></symbol><symbol viewBox="0 0 100 100" id="remove" xmlns="http://www.w3.org/2000/svg"><defs><path d="M72.9 12.9L50 35.85 27.05 12.9 12.9 27.05 35.85 50 12.9 72.9l14.15 14.15L50 64.15l22.9 22.9L87.05 72.9 64.15 50l22.9-22.95L72.9 12.9z" id="cna"/></defs><use xlink:href="#cna" width="100%" height="100%" transform="matrix(1.34862 0 0 1.34862 -17.397 -17.397)"/></symbol><symbol viewBox="-7.125 -7.328 100 99.999999" id="scene" xmlns="http://www.w3.org/2000/svg"><path d="M52.597 52.87L22.042 12.055-7.125 73.287h100L67.879 40.628zM80.375 13.412c5.366 0 9.722 4.27 9.722 9.531 0 5.262-4.355 9.524-9.722 9.524-5.374 0-9.718-4.261-9.718-9.523s4.344-9.532 9.718-9.532z"/></symbol><symbol viewBox="0 0 100 100" id="search" xmlns="http://www.w3.org/2000/svg"><title>se1</title><path d="M39.23 78.46a39.23 39.23 0 1 1 39-39.23 39.17 39.17 0 0 1-39 39.23zm0-63a23.8 23.8 0 1 0 23.59 23.77 23.71 23.71 0 0 0-23.59-23.8z"/><path d="M56.045 66.85L66.94 55.908l33.289 33.15-10.895 10.94z"/></symbol><symbol viewBox="0 0 100 100" id="slow" xmlns="http://www.w3.org/2000/svg"><g transform="matrix(1.66667 0 0 1.66667 10 10)"><path d="M17.058 47.539L48 23.948 17.058.461zM0 0h9.208v48H0z"/></g></symbol><symbol viewBox="0 0 100 100" id="split" xmlns="http://www.w3.org/2000/svg"><g transform="translate(0 2)"><path d="M8 28h28v40H8zM44 4h12v88H44zM64 28h28v40H64z"/></g></symbol><symbol viewBox="0 0 100 100" id="templates" xmlns="http://www.w3.org/2000/svg"><path d="M97.722 23.267H45.711l-5.048-8.201c-.686-.963-1.458-2.277-3.29-2.277H2.279A2.276 2.276 0 0 0 0 15.066v70.077c0 1.143 1.019 2.068 2.277 2.068h95.444c1.26 0 2.278-.926 2.278-2.068v-59.81c0-1.142-1.019-2.066-2.278-2.066z"/></symbol><symbol viewBox="0 0 100 100" id="text" xmlns="http://www.w3.org/2000/svg"><path d="M43 19H24v10H10V5h80v24H76V19H57v62h20v14H23V81h20V19z" fill-rule="evenodd"/></symbol><symbol viewBox="-489 491 100 100" id="wave" xmlns="http://www.w3.org/2000/svg"><path d="M-409.8 557.7h-8.3v-33.3h8.3v33.3zm-50 0h-8.3v-33.3h8.3v33.3zm-16.7 8.3h-8.3v-50h8.3v50zm83.3 8.3h-8.3v-66.7h8.3v66.7zm-50 0h-8.3v-66.7h8.3v66.7zm16.7 16.7h-8.3V491h8.3v100z"/></symbol><symbol viewBox="0 0 100 100" id="zoomin" xmlns="http://www.w3.org/2000/svg"><path d="M64.239 54.239A34.832 34.832 0 0 0 70 35C70 15.67 54.329 0 35 0 15.67 0 0 15.67 0 35s15.67 35 35 35a34.832 34.832 0 0 0 19.239-5.761L90 100l10-10-35.761-35.761zM35 60c-13.785 0-25-11.215-25-25s11.215-25 25-25 25 11.215 25 25-11.215 25-25 25z"/><path d="M20 40h10v10h10V40h10V30H40V20H30v10H20z"/></symbol><symbol viewBox="0 0 100 100" id="zoomout" xmlns="http://www.w3.org/2000/svg"><path d="M64.238 54.239A34.824 34.824 0 0 0 70 35C70 15.67 54.33 0 35 0S0 15.67 0 35s15.67 35 35 35c7.106 0 13.718-2.12 19.239-5.761L90 100l10-10-35.762-35.761zM35 60c-13.785 0-25-11.215-25-25s11.215-25 25-25 25 11.215 25 25-11.215 25-25 25z"/><path d="M20 30h30v10H20z"/></symbol></svg>